<svg xmlns="http://www.w3.org/2000/svg" xmlns:xlink="http://www.w3.org/1999/xlink" version="1.0" x="0px" y="0px" width="48px" height="48px" viewBox="0 0 48 48" fill="#false" ><path fill="#3F51B5" d="M44,24c0,11.046-8.954,20-20,20S4,35.046,4,24S12.954,4,24,4S44,12.954,44,24"></path><path fill="#EEEEEE" d="M40,24c0,8.837-7.163,16-16,16S8,32.837,8,24S15.163,8,24,8S40,15.163,40,24"></path><g>	<path fill="#1A237E" d="M38.97,18.393l3.042-3.042c-0.302-0.629-0.635-1.238-0.999-1.829L38.1,16.436		C38.436,17.063,38.718,17.72,38.97,18.393z"></path>	<path fill="#1A237E" d="M35.033,12.431l2.828-2.829c-0.481-0.464-0.987-0.901-1.513-1.315l-2.854,2.855		C34.033,11.541,34.549,11.969,35.033,12.431z"></path></g><g>			<rect x="18.3" y="14.501" transform="matrix(0.7073 -0.7069 0.7069 0.7073 -9.7954 21.2802)" fill="#4CAF50" width="4.999" height="15.935"></rect>			<rect x="18.678" y="15.418" transform="matrix(0.7071 -0.7071 0.7071 0.7071 -2.9791 28.6424)" fill="#4CAF50" width="28.809" height="4.999"></rect></g><g>	<path fill="#90A4AE" d="M11,24c0-0.338,0.025-0.669,0.051-1h-3C8.029,23.332,8,23.662,8,24s0.029,0.668,0.051,1h3		C11.025,24.669,11,24.338,11,24z"></path>	<path fill="#90A4AE" d="M24,11c0.338,0,0.669,0.025,1,0.051v-3C24.668,8.029,24.338,8,24,8s-0.668,0.029-1,0.051v3		C23.331,11.025,23.662,11,24,11z"></path>	<path fill="#90A4AE" d="M24,37c-0.338,0-0.669-0.025-1-0.051v3C23.332,39.971,23.662,40,24,40s0.668-0.029,1-0.051v-3		C24.669,36.975,24.338,37,24,37z"></path>	<path fill="#90A4AE" d="M39.949,23h-3C36.975,23.331,37,23.662,37,24s-0.025,0.669-0.051,1h3C39.971,24.668,40,24.338,40,24		S39.971,23.332,39.949,23z"></path></g></svg>